#!OML:ASF \\Waltz\H\Terrain\Patient Classification 1\Animal2\Wednesday\Animal2.ASF
:FULLY-SPECIFIED
:DEGREES
1203
root 11.0477 17.5158 -8.02582 -1.90688 37.9111 -2.06188
lowerback 8.85696 -1.74579 3.45258
upperback -5.3284 -1.83006 0.352489
thorax -10.8211 -1.10821 -1.23024
lowerneck 3.75468 6.24118 16.8029
upperneck -10.3667 8.53488 -12.1017
head -2.39758 4.1788 -6.62881
rclavicle -4.30369e-014 -7.15625e-015
rhumerus -55.8034 -30.4999 -2.08282
rradius 55.0701
rwrist 4.78928
rhand -19.871 23.4057
rfingers 7.12502
rthumb 6.46433 -6.4756
lclavicle -4.30369e-014 -7.15625e-015
lhumerus -68.5106 22.7788 0.532772
lradius 41.2492
lwrist 25.3789
lhand -20.4874 40.656
lfingers 7.12502
lthumb 5.86922 70.5547
rfemur -11.6284 12.0387 17.7146
rtibia 44.3428
rfoot -12.2231 15.3174
rtoes 25.3016
lfemur -16.6631 -3.68443 -2.97637
ltibia 33.2266
lfoot -13.8054 7.15604
ltoes -27.1349
1204
root 10.9386 17.4741 -8.1458 -1.83606 38.0211 -2.13035
lowerback 7.60731 -1.78929 3.2585
upperback -4.37414 -1.97822 0.454855
thorax -9.016 -1.13774 -1.04361
lowerneck 3.20539 6.42008 16.5505
upperneck -11.5058 8.61897 -12.3157
head -2.62804 4.20674 -6.67415
rclavicle 8.0719e-014 8.54774e-015
rhumerus -55.6564 -34.6233 0.0433067
rradius 53.45
rwrist 7.05053
rhand -11.1233 24.1783
rfingers 7.12502
rthumb 14.9017 -5.2657
lclavicle 8.0719e-014 8.54774e-015
lhumerus -69.1955 25.671 -0.953975
lradius 40.9328
lwrist 23.3944
lhand -18.134 42.5834
lfingers 7.12502
lthumb 8.141 72.4066
rfemur -12.4098 13.0261 17.8429
rtibia 44.6605
rfoot -13.4758 14.1746
rtoes 22.7055
lfemur -16.3314 -3.36773 -2.67583
ltibia 34.0995
lfoot -13.9706 7.08916
ltoes -27.2098
1205
root 10.8319 17.4374 -8.26829 -1.82305 38.2553 -2.29335
lowerback 7.80242 -1.87301 3.59381
upperback -4.56382 -2.05396 0.278044
thorax -9.36491 -1.20703 -1.39707
lowerneck 3.19428 6.3056 16.717
upperneck -11.5165 8.46054 -12.4566
head -2.63726 4.12735 -6.74771
rclavicle -2.80411e-014 -5.11871e-015
rhumerus -56.0305 -35.9367 1.86605
rradius 52.1686
rwrist 9.51869
rhand -2.53148 25.8392
rfingers 7.12502
rthumb 23.1635 -2.7881
lclavicle -2.80411e-014 -5.11871e-015
lhumerus -69.0465 25.8959 -1.51326
lradius 40.8461
lwrist 22.2004
lhand -16.0663 43.817
lfingers 7.12502
lthumb 10.1362 73.5528
rfemur -13.1856 13.7615 17.9703
rtibia 44.8933
rfoot -14.7325 13.1804
rtoes 18.7333
lfemur -16.0327 -3.15457 -2.30449
ltibia 34.9807
lfoot -14.2204 6.50475
ltoes -26.0544
1206
root 10.7295 17.415 -8.39679 -1.58018 38.5829 -2.20982
lowerback 7.77254 -1.94504 3.72634
upperback -4.65303 -2.15006 0.0959532
thorax -9.46496 -1.27126 -1.6486
lowerneck 2.83596 6.22483 16.7378
upperneck -11.4434 8.28515 -12.6117
head -2.57185 4.03959 -6.78491
rclavicle 1.31937e-013 2.72583e-014
rhumerus -56.0233 -36.1523 2.85207
rradius 51.3993
rwrist 11.498
rhand 5.58955 27.5038
rfingers 7.12502
rthumb 30.9321 0.0894515
lclavicle 1.31937e-013 2.72583e-014
lhumerus -68.6075 25.95 -1.47178
lradius 40.8858
lwrist 21.0782
lhand -12.7021 44.1334
lfingers 7.12502
lthumb 13.3803 73.6837
rfemur -14.0312 14.2595 17.7732
rtibia 45.0373
rfoot -15.8359 12.078
rtoes 13.9649
lfemur -15.8155 -3.01025 -2.22088
ltibia 35.7851
lfoot -14.5698 5.80108
ltoes -25.8867
1207
root 10.6308 17.4079 -8.52685 -1.3878 39.0381 -2.09008
lowerback 7.73468 -2.09072 3.76429
upperback -4.69774 -2.35441 -0.0456598
thorax -9.51335 -1.37942 -1.78756
lowerneck 2.64016 6.16798 16.5999
upperneck -11.5017 8.16661 -12.6139
head -2.57914 3.98052 -6.75972
rclavicle 8.4235e-015 2.12451e-015
rhumerus -55.5742 -35.6713 3.15499
rradius 51.0397
rwrist 13.3437
rhand 13.5875 28.8711
rfingers 7.12502
rthumb 38.5204 3.21542
lclavicle 8.4235e-015 2.12451e-015
lhumerus -68.2836 26.1995 -1.7388
lradius 40.8995
lwrist 19.6882
lhand -8.68646 44.4202
lfingers 7.12502
lthumb 17.2482 73.6747
rfemur -14.6801 14.4417 17.5341
rtibia 45.0352
rfoot -16.621 11.1268
rtoes 11.4004
lfemur -15.5028 -3.02598 -2.26443
ltibia 36.4664
lfoot -14.8541 5.14672
ltoes -26.6274
1208
root 10.5355 17.4202 -8.65307 -1.24741 39.5379 -2.04791
lowerback 7.6519 -2.29325 3.86541
upperback -4.74997 -2.63046 -0.198272
thorax -9.55408 -1.52696 -1.96317
lowerneck 2.65897 6.1171 16.4822
upperneck -11.7187 8.08764 -12.5884
head -2.66376 3.94137 -6.74325
rclavicle -5.34296e-014 9.19379e-015
rhumerus -54.9739 -34.9512 3.08647
rradius 50.9667
rwrist 15.5355
rhand 20.7148 30.2733
rfingers 7.12502
rthumb 45.2004 6.85315
lclavicle -5.34296e-014 9.19379e-015
lhumerus -68.0203 26.6502 -2.39627
lradius 40.8007
lwrist 17.8203
lhand -4.12188 44.2946
lfingers 7.12502
lthumb 21.6369 73.1057
rfemur -15.1551 14.4428 17.3261
rtibia 44.7963
rfoot -16.6518 10.9435
rtoes 13.726
lfemur -15.094 -3.14443 -2.28895
ltibia 36.9855
lfoot -15.2164 4.1809
ltoes -25.566
1209
root 10.4422 17.4501 -8.78313 -0.970325 39.9686 -2.08568
lowerback 7.40534 -2.38557 4.06651
upperback -4.82999 -2.75228 -0.341444
thorax -9.52488 -1.6056 -2.21573
lowerneck 2.58275 6.03941 16.4276
upperneck -12.0836 7.94433 -12.7038
head -2.77504 3.87007 -6.78426
rclavicle -2.49847e-014 6.65929e-015
rhumerus -54.7635 -34.6707 3.62758
rradius 50.8702
rwrist 18.1565
rhand 26.98 31.9606
rfingers 7.12502
rthumb 50.9726 11.2639
lclavicle -2.49847e-014 6.65929e-015
lhumerus -67.3623 27.0107 -2.53669
lradius 40.8288
lwrist 15.9824
lhand 1.81671 43.524
lfingers 7.12502
lthumb 27.3293 71.563
rfemur -15.7808 14.3782 17.0559
rtibia 44.2743
rfoot -16.1331 11.1887
rtoes 16.8571
lfemur -14.7864 -3.13073 -2.29017
ltibia 37.3075
lfoot -15.455 3.42048
ltoes -24.2553
1210
root 10.3486 17.4796 -8.92083 -0.777751 40.3247 -2.02035
lowerback 7.19964 -2.43321 4.03215
upperback -4.73698 -2.83589 -0.396937
thorax -9.30821 -1.64213 -2.25216
lowerneck 2.48346 6.03594 16.3077
upperneck -12.6549 7.87452 -12.9512
head -2.92718 3.84171 -6.86282
rclavicle 1.2921e-015 1.69961e-014
rhumerus -54.5047 -34.787 4.41247
rradius 50.7388
rwrist 20.6841
rhand 32.327 33.9748
rfingers 7.12502
rthumb 55.786 16.4204
lclavicle 1.2921e-015 1.69961e-014
lhumerus -66.6577 27.4817 -2.38978
lradius 41.064
lwrist 14.4956
lhand 8.17931 42.7474
lfingers 7.12502
lthumb 33.3975 69.6629
rfemur -16.1981 14.1697 16.6955
rtibia 43.4936
rfoot -15.5411 11.4619
rtoes 19.7177
lfemur -14.1659 -3.05837 -2.47618
ltibia 37.4337
lfoot -15.4394 3.36727
ltoes -25.4307
1211
root 10.2557 17.52 -9.05764 -0.5557 40.7166 -1.65765
lowerback 7.11791 -2.51572 3.59019
upperback -4.60081 -3.00654 -0.449053
thorax -9.09869 -1.6951 -2.03999
lowerneck 2.37126 6.05929 16.2296
upperneck -13.0296 7.84056 -13.2727
head -3.0077 3.83678 -6.96327
rclavicle 1.01007e-013 1.53064e-014
rhumerus -54.0314 -34.5961 4.87636
rradius 50.7626
rwrist 22.588
rhand 36.2761 35.6273
rfingers 7.12502
rthumb 59.2432 21.0763
lclavicle 1.01007e-013 1.53064e-014
lhumerus -65.9817 27.8451 -2.17806
lradius 41.4437
lwrist 13.494
lhand 14.0324 42.3172
lfingers 7.12502
lthumb 38.9401 67.8544
rfemur -16.2809 13.8306 16.16
rtibia 42.5121
rfoot -14.9841 11.5369
rtoes 21.7848
lfemur -13.2141 -3.01321 -2.96665
ltibia 37.3812
lfoot -15.4941 3.18703
ltoes -25.1302
